<mxfile host="app.diagrams.net" agent="Mozilla/5.0 (Windows NT 10.0; Win64; x64) AppleWebKit/537.36 (KHTML, like Gecko) Chrome/129.0.0.0 Safari/537.36" version="24.7.17">
  <diagram name="Page-1" id="2a216829-ef6e-dabb-86c1-c78162f3ba2b">
    <mxGraphModel dx="1434" dy="-362" grid="1" gridSize="10" guides="1" tooltips="1" connect="1" arrows="1" fold="1" page="1" pageScale="1" pageWidth="850" pageHeight="1100" background="none" math="0" shadow="0">
      <root>
        <mxCell id="0" />
        <mxCell id="1" parent="0" />
        <mxCell id="9We2MKFiq2JLnH1zAsmh-3" value="" style="rounded=0;whiteSpace=wrap;html=1;fillColor=none;" vertex="1" parent="1">
          <mxGeometry x="80" y="1120" width="1040" height="160" as="geometry" />
        </mxCell>
        <mxCell id="9We2MKFiq2JLnH1zAsmh-4" value="Client 1" style="text;html=1;align=center;verticalAlign=middle;whiteSpace=wrap;rounded=0;rotation=-90;" vertex="1" parent="1">
          <mxGeometry x="70" y="1185" width="60" height="30" as="geometry" />
        </mxCell>
        <mxCell id="9We2MKFiq2JLnH1zAsmh-7" value="" style="rounded=0;whiteSpace=wrap;html=1;fillColor=none;" vertex="1" parent="1">
          <mxGeometry x="80" y="1280" width="1040" height="160" as="geometry" />
        </mxCell>
        <mxCell id="9We2MKFiq2JLnH1zAsmh-8" value="" style="rounded=0;whiteSpace=wrap;html=1;fillColor=none;" vertex="1" parent="1">
          <mxGeometry x="80" y="1440" width="1040" height="160" as="geometry" />
        </mxCell>
        <mxCell id="9We2MKFiq2JLnH1zAsmh-9" value="" style="rounded=0;whiteSpace=wrap;html=1;fillColor=none;" vertex="1" parent="1">
          <mxGeometry x="40" y="1120" width="40" height="480" as="geometry" />
        </mxCell>
        <mxCell id="9We2MKFiq2JLnH1zAsmh-10" value="Battleship Game" style="text;html=1;align=center;verticalAlign=middle;whiteSpace=wrap;rounded=0;rotation=-90;" vertex="1" parent="1">
          <mxGeometry x="-55" y="1345" width="230" height="30" as="geometry" />
        </mxCell>
        <mxCell id="9We2MKFiq2JLnH1zAsmh-11" value="Client 2" style="text;html=1;align=center;verticalAlign=middle;whiteSpace=wrap;rounded=0;rotation=-90;" vertex="1" parent="1">
          <mxGeometry x="70" y="1505" width="60" height="30" as="geometry" />
        </mxCell>
        <mxCell id="9We2MKFiq2JLnH1zAsmh-12" value="Server" style="text;html=1;align=center;verticalAlign=middle;whiteSpace=wrap;rounded=0;rotation=-90;" vertex="1" parent="1">
          <mxGeometry x="70" y="1345" width="60" height="30" as="geometry" />
        </mxCell>
        <mxCell id="9We2MKFiq2JLnH1zAsmh-13" value="Setup" style="rounded=1;whiteSpace=wrap;html=1;dashed=1;fillStyle=solid;" vertex="1" parent="1">
          <mxGeometry x="120" y="1160" width="80" height="400" as="geometry" />
        </mxCell>
        <mxCell id="9We2MKFiq2JLnH1zAsmh-14" value="" style="endArrow=classic;html=1;rounded=0;" edge="1" parent="1">
          <mxGeometry width="50" height="50" relative="1" as="geometry">
            <mxPoint x="200" y="1199.6" as="sourcePoint" />
            <mxPoint x="240" y="1199.6" as="targetPoint" />
          </mxGeometry>
        </mxCell>
        <mxCell id="9We2MKFiq2JLnH1zAsmh-15" value="Player 1 selects&lt;br&gt;shooting position" style="rounded=1;whiteSpace=wrap;html=1;" vertex="1" parent="1">
          <mxGeometry x="240" y="1180" width="120" height="40" as="geometry" />
        </mxCell>
        <mxCell id="9We2MKFiq2JLnH1zAsmh-16" value="" style="endArrow=classic;html=1;rounded=0;" edge="1" parent="1">
          <mxGeometry width="50" height="50" relative="1" as="geometry">
            <mxPoint x="360" y="1199.5" as="sourcePoint" />
            <mxPoint x="400" y="1199.5" as="targetPoint" />
          </mxGeometry>
        </mxCell>
        <mxCell id="9We2MKFiq2JLnH1zAsmh-17" value="" style="ellipse;whiteSpace=wrap;html=1;aspect=fixed;" vertex="1" parent="1">
          <mxGeometry x="400" y="1180" width="40" height="40" as="geometry" />
        </mxCell>
        <mxCell id="9We2MKFiq2JLnH1zAsmh-18" value="" style="ellipse;whiteSpace=wrap;html=1;aspect=fixed;" vertex="1" parent="1">
          <mxGeometry x="405" y="1185" width="30" height="30" as="geometry" />
        </mxCell>
        <mxCell id="9We2MKFiq2JLnH1zAsmh-19" value="" style="shape=message;whiteSpace=wrap;html=1;fillColor=default;" vertex="1" parent="1">
          <mxGeometry x="411.25" y="1192.5" width="17.5" height="15" as="geometry" />
        </mxCell>
        <mxCell id="9We2MKFiq2JLnH1zAsmh-26" value="" style="endArrow=classic;html=1;rounded=0;" edge="1" parent="1">
          <mxGeometry width="50" height="50" relative="1" as="geometry">
            <mxPoint x="200" y="1359.5" as="sourcePoint" />
            <mxPoint x="398.75" y="1360.5" as="targetPoint" />
          </mxGeometry>
        </mxCell>
        <mxCell id="9We2MKFiq2JLnH1zAsmh-27" value="" style="endArrow=classic;html=1;rounded=0;dashed=1;" edge="1" parent="1" source="9We2MKFiq2JLnH1zAsmh-31">
          <mxGeometry width="50" height="50" relative="1" as="geometry">
            <mxPoint x="419.65999999999997" y="1220" as="sourcePoint" />
            <mxPoint x="419.66" y="1340" as="targetPoint" />
          </mxGeometry>
        </mxCell>
        <mxCell id="9We2MKFiq2JLnH1zAsmh-28" value="" style="ellipse;whiteSpace=wrap;html=1;aspect=fixed;" vertex="1" parent="1">
          <mxGeometry x="400" y="1340" width="40" height="40" as="geometry" />
        </mxCell>
        <mxCell id="9We2MKFiq2JLnH1zAsmh-29" value="" style="ellipse;whiteSpace=wrap;html=1;aspect=fixed;" vertex="1" parent="1">
          <mxGeometry x="405" y="1345" width="30" height="30" as="geometry" />
        </mxCell>
        <mxCell id="9We2MKFiq2JLnH1zAsmh-30" value="" style="shape=message;whiteSpace=wrap;html=1;fillColor=#636363;" vertex="1" parent="1">
          <mxGeometry x="411.25" y="1352.5" width="17.5" height="15" as="geometry" />
        </mxCell>
        <mxCell id="9We2MKFiq2JLnH1zAsmh-32" value="" style="endArrow=classic;html=1;rounded=0;dashed=1;" edge="1" parent="1" target="9We2MKFiq2JLnH1zAsmh-31">
          <mxGeometry width="50" height="50" relative="1" as="geometry">
            <mxPoint x="419.65999999999997" y="1220" as="sourcePoint" />
            <mxPoint x="419.66" y="1340" as="targetPoint" />
          </mxGeometry>
        </mxCell>
        <mxCell id="9We2MKFiq2JLnH1zAsmh-31" value="" style="ellipse;whiteSpace=wrap;html=1;aspect=fixed;" vertex="1" parent="1">
          <mxGeometry x="415" y="1220" width="10" height="10" as="geometry" />
        </mxCell>
        <mxCell id="9We2MKFiq2JLnH1zAsmh-35" value="" style="endArrow=classic;html=1;rounded=0;" edge="1" parent="1">
          <mxGeometry width="50" height="50" relative="1" as="geometry">
            <mxPoint x="440" y="1359.6599999999999" as="sourcePoint" />
            <mxPoint x="480" y="1359.6599999999999" as="targetPoint" />
          </mxGeometry>
        </mxCell>
        <mxCell id="9We2MKFiq2JLnH1zAsmh-36" value="send&lt;br&gt;Shoot&lt;br&gt;Message" style="text;html=1;align=center;verticalAlign=middle;whiteSpace=wrap;rounded=0;" vertex="1" parent="1">
          <mxGeometry x="375" y="1130" width="90" height="42.5" as="geometry" />
        </mxCell>
        <mxCell id="9We2MKFiq2JLnH1zAsmh-37" value="process&lt;br&gt;shot" style="rounded=1;whiteSpace=wrap;html=1;" vertex="1" parent="1">
          <mxGeometry x="480" y="1340" width="60" height="40" as="geometry" />
        </mxCell>
        <mxCell id="9We2MKFiq2JLnH1zAsmh-38" value="" style="endArrow=classic;html=1;rounded=0;" edge="1" parent="1">
          <mxGeometry width="50" height="50" relative="1" as="geometry">
            <mxPoint x="540" y="1359.6599999999999" as="sourcePoint" />
            <mxPoint x="580" y="1359.6599999999999" as="targetPoint" />
          </mxGeometry>
        </mxCell>
        <mxCell id="9We2MKFiq2JLnH1zAsmh-39" value="" style="ellipse;whiteSpace=wrap;html=1;aspect=fixed;" vertex="1" parent="1">
          <mxGeometry x="580" y="1340" width="40" height="40" as="geometry" />
        </mxCell>
        <mxCell id="9We2MKFiq2JLnH1zAsmh-40" value="" style="ellipse;whiteSpace=wrap;html=1;aspect=fixed;" vertex="1" parent="1">
          <mxGeometry x="585" y="1345" width="30" height="30" as="geometry" />
        </mxCell>
        <mxCell id="9We2MKFiq2JLnH1zAsmh-41" value="" style="shape=message;whiteSpace=wrap;html=1;fillColor=default;" vertex="1" parent="1">
          <mxGeometry x="591.25" y="1352.5" width="17.5" height="15" as="geometry" />
        </mxCell>
        <mxCell id="9We2MKFiq2JLnH1zAsmh-42" value="" style="endArrow=classic;html=1;rounded=0;" edge="1" parent="1">
          <mxGeometry width="50" height="50" relative="1" as="geometry">
            <mxPoint x="620" y="1359.6599999999999" as="sourcePoint" />
            <mxPoint x="660" y="1359.6599999999999" as="targetPoint" />
          </mxGeometry>
        </mxCell>
        <mxCell id="9We2MKFiq2JLnH1zAsmh-43" value="" style="ellipse;whiteSpace=wrap;html=1;aspect=fixed;" vertex="1" parent="1">
          <mxGeometry x="660" y="1340" width="40" height="40" as="geometry" />
        </mxCell>
        <mxCell id="9We2MKFiq2JLnH1zAsmh-44" value="" style="ellipse;whiteSpace=wrap;html=1;aspect=fixed;" vertex="1" parent="1">
          <mxGeometry x="665" y="1345" width="30" height="30" as="geometry" />
        </mxCell>
        <mxCell id="9We2MKFiq2JLnH1zAsmh-45" value="" style="shape=message;whiteSpace=wrap;html=1;fillColor=default;" vertex="1" parent="1">
          <mxGeometry x="671.25" y="1352.5" width="17.5" height="15" as="geometry" />
        </mxCell>
        <mxCell id="9We2MKFiq2JLnH1zAsmh-46" value="" style="ellipse;whiteSpace=wrap;html=1;aspect=fixed;" vertex="1" parent="1">
          <mxGeometry x="580" y="1180" width="40" height="40" as="geometry" />
        </mxCell>
        <mxCell id="9We2MKFiq2JLnH1zAsmh-47" value="" style="ellipse;whiteSpace=wrap;html=1;aspect=fixed;" vertex="1" parent="1">
          <mxGeometry x="585" y="1185" width="30" height="30" as="geometry" />
        </mxCell>
        <mxCell id="9We2MKFiq2JLnH1zAsmh-48" value="" style="shape=message;whiteSpace=wrap;html=1;fillColor=#636363;" vertex="1" parent="1">
          <mxGeometry x="591.25" y="1192.5" width="17.5" height="15" as="geometry" />
        </mxCell>
        <mxCell id="9We2MKFiq2JLnH1zAsmh-49" value="" style="ellipse;whiteSpace=wrap;html=1;aspect=fixed;" vertex="1" parent="1">
          <mxGeometry x="660" y="1500" width="40" height="40" as="geometry" />
        </mxCell>
        <mxCell id="9We2MKFiq2JLnH1zAsmh-50" value="" style="ellipse;whiteSpace=wrap;html=1;aspect=fixed;" vertex="1" parent="1">
          <mxGeometry x="665" y="1505" width="30" height="30" as="geometry" />
        </mxCell>
        <mxCell id="9We2MKFiq2JLnH1zAsmh-51" value="" style="shape=message;whiteSpace=wrap;html=1;fillColor=#636363;" vertex="1" parent="1">
          <mxGeometry x="671.25" y="1512.5" width="17.5" height="15" as="geometry" />
        </mxCell>
        <mxCell id="9We2MKFiq2JLnH1zAsmh-54" value="" style="endArrow=classic;html=1;rounded=0;dashed=1;exitX=0.5;exitY=0;exitDx=0;exitDy=0;" edge="1" parent="1" source="9We2MKFiq2JLnH1zAsmh-57">
          <mxGeometry width="50" height="50" relative="1" as="geometry">
            <mxPoint x="599.66" y="1332" as="sourcePoint" />
            <mxPoint x="599.66" y="1220" as="targetPoint" />
          </mxGeometry>
        </mxCell>
        <mxCell id="9We2MKFiq2JLnH1zAsmh-55" value="" style="endArrow=classic;html=1;rounded=0;dashed=1;exitX=0.5;exitY=1;exitDx=0;exitDy=0;" edge="1" parent="1" source="9We2MKFiq2JLnH1zAsmh-59">
          <mxGeometry width="50" height="50" relative="1" as="geometry">
            <mxPoint x="680" y="1390" as="sourcePoint" />
            <mxPoint x="679.66" y="1500" as="targetPoint" />
          </mxGeometry>
        </mxCell>
        <mxCell id="9We2MKFiq2JLnH1zAsmh-56" value="" style="endArrow=classic;html=1;rounded=0;" edge="1" parent="1">
          <mxGeometry width="50" height="50" relative="1" as="geometry">
            <mxPoint x="199" y="1519.66" as="sourcePoint" />
            <mxPoint x="659" y="1519.66" as="targetPoint" />
          </mxGeometry>
        </mxCell>
        <mxCell id="9We2MKFiq2JLnH1zAsmh-58" value="" style="endArrow=classic;html=1;rounded=0;dashed=1;exitX=0.5;exitY=0;exitDx=0;exitDy=0;" edge="1" parent="1" source="9We2MKFiq2JLnH1zAsmh-39" target="9We2MKFiq2JLnH1zAsmh-57">
          <mxGeometry width="50" height="50" relative="1" as="geometry">
            <mxPoint x="600" y="1340" as="sourcePoint" />
            <mxPoint x="599.66" y="1220" as="targetPoint" />
          </mxGeometry>
        </mxCell>
        <mxCell id="9We2MKFiq2JLnH1zAsmh-57" value="" style="ellipse;whiteSpace=wrap;html=1;aspect=fixed;" vertex="1" parent="1">
          <mxGeometry x="595" y="1330" width="10" height="10" as="geometry" />
        </mxCell>
        <mxCell id="9We2MKFiq2JLnH1zAsmh-60" value="" style="endArrow=classic;html=1;rounded=0;dashed=1;exitX=0.5;exitY=1;exitDx=0;exitDy=0;" edge="1" parent="1" source="9We2MKFiq2JLnH1zAsmh-43" target="9We2MKFiq2JLnH1zAsmh-59">
          <mxGeometry width="50" height="50" relative="1" as="geometry">
            <mxPoint x="680" y="1380" as="sourcePoint" />
            <mxPoint x="679.66" y="1500" as="targetPoint" />
          </mxGeometry>
        </mxCell>
        <mxCell id="9We2MKFiq2JLnH1zAsmh-59" value="" style="ellipse;whiteSpace=wrap;html=1;aspect=fixed;" vertex="1" parent="1">
          <mxGeometry x="675" y="1380" width="10" height="10" as="geometry" />
        </mxCell>
        <mxCell id="9We2MKFiq2JLnH1zAsmh-61" value="send&lt;br&gt;Effect&lt;br&gt;Message" style="text;html=1;align=center;verticalAlign=middle;whiteSpace=wrap;rounded=0;" vertex="1" parent="1">
          <mxGeometry x="570" y="1380" width="60" height="50" as="geometry" />
        </mxCell>
        <mxCell id="9We2MKFiq2JLnH1zAsmh-62" value="send&lt;br&gt;Effect&lt;br&gt;Message" style="text;html=1;align=center;verticalAlign=middle;whiteSpace=wrap;rounded=0;" vertex="1" parent="1">
          <mxGeometry x="650" y="1290" width="60" height="50" as="geometry" />
        </mxCell>
        <mxCell id="9We2MKFiq2JLnH1zAsmh-63" value="" style="endArrow=classic;html=1;rounded=0;entryX=0;entryY=0.5;entryDx=0;entryDy=0;exitX=1;exitY=0.5;exitDx=0;exitDy=0;" edge="1" parent="1" source="9We2MKFiq2JLnH1zAsmh-17" target="9We2MKFiq2JLnH1zAsmh-46">
          <mxGeometry width="50" height="50" relative="1" as="geometry">
            <mxPoint x="580" y="1440" as="sourcePoint" />
            <mxPoint x="630" y="1390" as="targetPoint" />
          </mxGeometry>
        </mxCell>
        <mxCell id="9We2MKFiq2JLnH1zAsmh-93" style="edgeStyle=orthogonalEdgeStyle;rounded=1;orthogonalLoop=1;jettySize=auto;html=1;exitX=0.5;exitY=0;exitDx=0;exitDy=0;entryX=0;entryY=0.5;entryDx=0;entryDy=0;curved=0;strokeColor=#FF0000;" edge="1" parent="1" source="9We2MKFiq2JLnH1zAsmh-65" target="9We2MKFiq2JLnH1zAsmh-79">
          <mxGeometry relative="1" as="geometry" />
        </mxCell>
        <mxCell id="9We2MKFiq2JLnH1zAsmh-94" style="edgeStyle=orthogonalEdgeStyle;rounded=1;orthogonalLoop=1;jettySize=auto;html=1;exitX=0.5;exitY=1;exitDx=0;exitDy=0;entryX=0;entryY=0.5;entryDx=0;entryDy=0;curved=0;strokeColor=#FF0000;" edge="1" parent="1" source="9We2MKFiq2JLnH1zAsmh-65" target="9We2MKFiq2JLnH1zAsmh-76">
          <mxGeometry relative="1" as="geometry" />
        </mxCell>
        <mxCell id="9We2MKFiq2JLnH1zAsmh-65" value="" style="shape=mxgraph.bpmn.shape;html=1;verticalLabelPosition=bottom;labelBackgroundColor=#ffffff;verticalAlign=top;perimeter=rhombusPerimeter;background=gateway;outline=none;symbol=parallelGw;strokeColor=#FF0000;" vertex="1" parent="1">
          <mxGeometry x="770" y="1340" width="40" height="40" as="geometry" />
        </mxCell>
        <mxCell id="9We2MKFiq2JLnH1zAsmh-66" value="" style="endArrow=classic;html=1;rounded=0;" edge="1" parent="1">
          <mxGeometry width="50" height="50" relative="1" as="geometry">
            <mxPoint x="620" y="1199.58" as="sourcePoint" />
            <mxPoint x="660" y="1199.58" as="targetPoint" />
          </mxGeometry>
        </mxCell>
        <mxCell id="9We2MKFiq2JLnH1zAsmh-67" value="" style="endArrow=classic;html=1;rounded=0;" edge="1" parent="1">
          <mxGeometry width="50" height="50" relative="1" as="geometry">
            <mxPoint x="700" y="1519.58" as="sourcePoint" />
            <mxPoint x="740" y="1519.58" as="targetPoint" />
          </mxGeometry>
        </mxCell>
        <mxCell id="9We2MKFiq2JLnH1zAsmh-68" value="update &lt;br&gt;map &amp;amp; view" style="rounded=1;whiteSpace=wrap;html=1;" vertex="1" parent="1">
          <mxGeometry x="660" y="1180" width="70" height="40" as="geometry" />
        </mxCell>
        <mxCell id="9We2MKFiq2JLnH1zAsmh-69" value="update &lt;br&gt;map &amp;amp; view" style="rounded=1;whiteSpace=wrap;html=1;" vertex="1" parent="1">
          <mxGeometry x="740" y="1500" width="70" height="40" as="geometry" />
        </mxCell>
        <mxCell id="9We2MKFiq2JLnH1zAsmh-72" value="" style="endArrow=classic;html=1;rounded=0;" edge="1" parent="1">
          <mxGeometry width="50" height="50" relative="1" as="geometry">
            <mxPoint x="810" y="1519.6599999999999" as="sourcePoint" />
            <mxPoint x="850" y="1519.6599999999999" as="targetPoint" />
          </mxGeometry>
        </mxCell>
        <mxCell id="9We2MKFiq2JLnH1zAsmh-73" value="" style="ellipse;whiteSpace=wrap;html=1;aspect=fixed;strokeColor=#FF0000;" vertex="1" parent="1">
          <mxGeometry x="850" y="1500" width="40" height="40" as="geometry" />
        </mxCell>
        <mxCell id="9We2MKFiq2JLnH1zAsmh-74" value="" style="ellipse;whiteSpace=wrap;html=1;aspect=fixed;strokeColor=#FF0000;" vertex="1" parent="1">
          <mxGeometry x="855" y="1505" width="30" height="30" as="geometry" />
        </mxCell>
        <mxCell id="9We2MKFiq2JLnH1zAsmh-75" value="" style="shape=message;whiteSpace=wrap;html=1;fillColor=default;strokeColor=#FF0000;" vertex="1" parent="1">
          <mxGeometry x="861.25" y="1512.5" width="17.5" height="15" as="geometry" />
        </mxCell>
        <mxCell id="9We2MKFiq2JLnH1zAsmh-99" style="edgeStyle=orthogonalEdgeStyle;rounded=1;orthogonalLoop=1;jettySize=auto;html=1;exitX=1;exitY=0.5;exitDx=0;exitDy=0;entryX=0.5;entryY=1;entryDx=0;entryDy=0;curved=0;strokeColor=#FF0000;" edge="1" parent="1" source="9We2MKFiq2JLnH1zAsmh-76" target="9We2MKFiq2JLnH1zAsmh-97">
          <mxGeometry relative="1" as="geometry" />
        </mxCell>
        <mxCell id="9We2MKFiq2JLnH1zAsmh-76" value="" style="ellipse;whiteSpace=wrap;html=1;aspect=fixed;strokeColor=#FF0000;" vertex="1" parent="1">
          <mxGeometry x="850" y="1380" width="40" height="40" as="geometry" />
        </mxCell>
        <mxCell id="9We2MKFiq2JLnH1zAsmh-77" value="" style="ellipse;whiteSpace=wrap;html=1;aspect=fixed;strokeColor=#FF0000;" vertex="1" parent="1">
          <mxGeometry x="855" y="1385" width="30" height="30" as="geometry" />
        </mxCell>
        <mxCell id="9We2MKFiq2JLnH1zAsmh-78" value="" style="shape=message;whiteSpace=wrap;html=1;fillColor=#636363;strokeColor=#FF0000;" vertex="1" parent="1">
          <mxGeometry x="861.25" y="1392.5" width="17.5" height="15" as="geometry" />
        </mxCell>
        <mxCell id="9We2MKFiq2JLnH1zAsmh-98" style="edgeStyle=orthogonalEdgeStyle;rounded=1;orthogonalLoop=1;jettySize=auto;html=1;exitX=1;exitY=0.5;exitDx=0;exitDy=0;entryX=0.5;entryY=0;entryDx=0;entryDy=0;curved=0;strokeColor=#FF0000;" edge="1" parent="1" source="9We2MKFiq2JLnH1zAsmh-79" target="9We2MKFiq2JLnH1zAsmh-97">
          <mxGeometry relative="1" as="geometry" />
        </mxCell>
        <mxCell id="9We2MKFiq2JLnH1zAsmh-79" value="" style="ellipse;whiteSpace=wrap;html=1;aspect=fixed;strokeColor=#FF0000;" vertex="1" parent="1">
          <mxGeometry x="850" y="1300" width="40" height="40" as="geometry" />
        </mxCell>
        <mxCell id="9We2MKFiq2JLnH1zAsmh-80" value="" style="ellipse;whiteSpace=wrap;html=1;aspect=fixed;strokeColor=#FF0000;" vertex="1" parent="1">
          <mxGeometry x="855" y="1305" width="30" height="30" as="geometry" />
        </mxCell>
        <mxCell id="9We2MKFiq2JLnH1zAsmh-81" value="" style="shape=message;whiteSpace=wrap;html=1;fillColor=#636363;strokeColor=#FF0000;" vertex="1" parent="1">
          <mxGeometry x="861.25" y="1312.5" width="17.5" height="15" as="geometry" />
        </mxCell>
        <mxCell id="9We2MKFiq2JLnH1zAsmh-82" value="" style="ellipse;whiteSpace=wrap;html=1;aspect=fixed;strokeColor=#FF0000;" vertex="1" parent="1">
          <mxGeometry x="850" y="1180" width="40" height="40" as="geometry" />
        </mxCell>
        <mxCell id="9We2MKFiq2JLnH1zAsmh-83" value="" style="ellipse;whiteSpace=wrap;html=1;aspect=fixed;strokeColor=#FF0000;" vertex="1" parent="1">
          <mxGeometry x="855" y="1185" width="30" height="30" as="geometry" />
        </mxCell>
        <mxCell id="9We2MKFiq2JLnH1zAsmh-84" value="" style="shape=message;whiteSpace=wrap;html=1;fillColor=default;strokeColor=#FF0000;" vertex="1" parent="1">
          <mxGeometry x="861.25" y="1192.5" width="17.5" height="15" as="geometry" />
        </mxCell>
        <mxCell id="9We2MKFiq2JLnH1zAsmh-85" value="" style="endArrow=classic;html=1;rounded=0;exitX=1;exitY=0.5;exitDx=0;exitDy=0;entryX=0;entryY=0.5;entryDx=0;entryDy=0;" edge="1" parent="1" source="9We2MKFiq2JLnH1zAsmh-68" target="9We2MKFiq2JLnH1zAsmh-82">
          <mxGeometry width="50" height="50" relative="1" as="geometry">
            <mxPoint x="640" y="1480" as="sourcePoint" />
            <mxPoint x="690" y="1430" as="targetPoint" />
          </mxGeometry>
        </mxCell>
        <mxCell id="9We2MKFiq2JLnH1zAsmh-86" value="" style="endArrow=classic;html=1;rounded=0;dashed=1;strokeColor=#FF0000;" edge="1" parent="1" source="9We2MKFiq2JLnH1zAsmh-88">
          <mxGeometry width="50" height="50" relative="1" as="geometry">
            <mxPoint x="870" y="1220" as="sourcePoint" />
            <mxPoint x="870" y="1300" as="targetPoint" />
          </mxGeometry>
        </mxCell>
        <mxCell id="9We2MKFiq2JLnH1zAsmh-87" value="" style="endArrow=classic;html=1;rounded=0;dashed=1;strokeColor=#FF0000;" edge="1" parent="1" source="9We2MKFiq2JLnH1zAsmh-90">
          <mxGeometry width="50" height="50" relative="1" as="geometry">
            <mxPoint x="870" y="1500" as="sourcePoint" />
            <mxPoint x="869.6600000000001" y="1420" as="targetPoint" />
          </mxGeometry>
        </mxCell>
        <mxCell id="9We2MKFiq2JLnH1zAsmh-89" value="" style="endArrow=classic;html=1;rounded=0;dashed=1;" edge="1" parent="1" target="9We2MKFiq2JLnH1zAsmh-88">
          <mxGeometry width="50" height="50" relative="1" as="geometry">
            <mxPoint x="870" y="1220" as="sourcePoint" />
            <mxPoint x="870" y="1300" as="targetPoint" />
          </mxGeometry>
        </mxCell>
        <mxCell id="9We2MKFiq2JLnH1zAsmh-88" value="" style="ellipse;whiteSpace=wrap;html=1;aspect=fixed;strokeColor=#FF0000;" vertex="1" parent="1">
          <mxGeometry x="865" y="1220" width="10" height="10" as="geometry" />
        </mxCell>
        <mxCell id="9We2MKFiq2JLnH1zAsmh-91" value="" style="endArrow=classic;html=1;rounded=0;dashed=1;" edge="1" parent="1" target="9We2MKFiq2JLnH1zAsmh-90">
          <mxGeometry width="50" height="50" relative="1" as="geometry">
            <mxPoint x="870" y="1500" as="sourcePoint" />
            <mxPoint x="869.6600000000001" y="1420" as="targetPoint" />
          </mxGeometry>
        </mxCell>
        <mxCell id="9We2MKFiq2JLnH1zAsmh-90" value="" style="ellipse;whiteSpace=wrap;html=1;aspect=fixed;strokeColor=#FF0000;" vertex="1" parent="1">
          <mxGeometry x="865" y="1490" width="10" height="10" as="geometry" />
        </mxCell>
        <mxCell id="9We2MKFiq2JLnH1zAsmh-92" value="" style="endArrow=classic;html=1;rounded=0;entryX=0;entryY=0.5;entryDx=0;entryDy=0;" edge="1" parent="1" target="9We2MKFiq2JLnH1zAsmh-65">
          <mxGeometry width="50" height="50" relative="1" as="geometry">
            <mxPoint x="700" y="1360" as="sourcePoint" />
            <mxPoint x="490" y="1369.6599999999999" as="targetPoint" />
          </mxGeometry>
        </mxCell>
        <mxCell id="9We2MKFiq2JLnH1zAsmh-95" value="send&lt;br&gt;Animation&lt;br&gt;Message" style="text;html=1;align=center;verticalAlign=middle;whiteSpace=wrap;rounded=0;fontColor=#FF0000;" vertex="1" parent="1">
          <mxGeometry x="840" y="1546" width="60" height="50" as="geometry" />
        </mxCell>
        <mxCell id="9We2MKFiq2JLnH1zAsmh-96" value="send&lt;br&gt;Animation&lt;br&gt;Message" style="text;html=1;align=center;verticalAlign=middle;whiteSpace=wrap;rounded=0;fontColor=#FF0000;" vertex="1" parent="1">
          <mxGeometry x="840" y="1126.25" width="60" height="50" as="geometry" />
        </mxCell>
        <mxCell id="9We2MKFiq2JLnH1zAsmh-102" style="edgeStyle=orthogonalEdgeStyle;rounded=0;orthogonalLoop=1;jettySize=auto;html=1;exitX=1;exitY=0.5;exitDx=0;exitDy=0;entryX=0;entryY=0.5;entryDx=0;entryDy=0;" edge="1" parent="1" source="9We2MKFiq2JLnH1zAsmh-97" target="9We2MKFiq2JLnH1zAsmh-100">
          <mxGeometry relative="1" as="geometry" />
        </mxCell>
        <mxCell id="9We2MKFiq2JLnH1zAsmh-97" value="" style="shape=mxgraph.bpmn.shape;html=1;verticalLabelPosition=bottom;labelBackgroundColor=#ffffff;verticalAlign=top;perimeter=rhombusPerimeter;background=gateway;outline=none;symbol=parallelGw;strokeColor=#FF0000;" vertex="1" parent="1">
          <mxGeometry x="930" y="1340" width="40" height="40" as="geometry" />
        </mxCell>
        <mxCell id="9We2MKFiq2JLnH1zAsmh-100" value="Game play" style="rounded=1;whiteSpace=wrap;html=1;dashed=1;fillStyle=solid;" vertex="1" parent="1">
          <mxGeometry x="1000" y="1160" width="80" height="400" as="geometry" />
        </mxCell>
        <mxCell id="9We2MKFiq2JLnH1zAsmh-101" style="edgeStyle=orthogonalEdgeStyle;rounded=0;orthogonalLoop=1;jettySize=auto;html=1;exitX=1;exitY=0.5;exitDx=0;exitDy=0;entryX=0.02;entryY=0.099;entryDx=0;entryDy=0;entryPerimeter=0;" edge="1" parent="1" source="9We2MKFiq2JLnH1zAsmh-82" target="9We2MKFiq2JLnH1zAsmh-100">
          <mxGeometry relative="1" as="geometry" />
        </mxCell>
        <mxCell id="9We2MKFiq2JLnH1zAsmh-103" style="edgeStyle=orthogonalEdgeStyle;rounded=0;orthogonalLoop=1;jettySize=auto;html=1;exitX=1;exitY=0.5;exitDx=0;exitDy=0;entryX=0.015;entryY=0.901;entryDx=0;entryDy=0;entryPerimeter=0;" edge="1" parent="1" source="9We2MKFiq2JLnH1zAsmh-73" target="9We2MKFiq2JLnH1zAsmh-100">
          <mxGeometry relative="1" as="geometry" />
        </mxCell>
      </root>
    </mxGraphModel>
  </diagram>
</mxfile>
